<mxfile host="65bd71144e">
    <diagram id="3Z-cbTWfE5fxNGHl1KyZ" name="Page-1">
        <mxGraphModel dx="768" dy="503" grid="0" gridSize="10" guides="1" tooltips="1" connect="1" arrows="1" fold="1" page="1" pageScale="1" pageWidth="980" pageHeight="1390" background="#ffffff" math="0" shadow="0">
            <root>
                <mxCell id="0"/>
                <mxCell id="1" parent="0"/>
                <mxCell id="2" value="" style="sketch=0;html=1;aspect=fixed;strokeColor=none;shadow=0;align=center;verticalAlign=top;fillColor=#3B8DF1;shape=mxgraph.gcp2.arrow_cycle" vertex="1" parent="1">
                    <mxGeometry x="289" y="157" width="186" height="176.7" as="geometry"/>
                </mxCell>
                <mxCell id="3" value="" style="sketch=0;html=1;aspect=fixed;strokeColor=none;shadow=0;align=center;verticalAlign=top;fillColor=#FFB366;shape=mxgraph.gcp2.arrow_cycle" vertex="1" parent="1">
                    <mxGeometry x="160" y="154" width="193" height="183.35" as="geometry"/>
                </mxCell>
                <mxCell id="4" value="" style="sketch=0;html=1;aspect=fixed;strokeColor=#2D7600;shadow=0;align=center;verticalAlign=top;fillColor=#60a917;shape=mxgraph.gcp2.arrow_cycle;fontColor=#ffffff;" vertex="1" parent="1">
                    <mxGeometry x="412" y="157.32" width="186" height="176.7" as="geometry"/>
                </mxCell>
                <mxCell id="5" value="&lt;font style=&quot;font-size: 14px;&quot; color=&quot;#000000&quot;&gt;Development&lt;/font&gt;" style="text;strokeColor=none;align=center;fillColor=none;html=1;verticalAlign=middle;whiteSpace=wrap;rounded=0;" vertex="1" parent="1">
                    <mxGeometry x="223" y="229.4" width="60" height="30" as="geometry"/>
                </mxCell>
                <mxCell id="6" value="&lt;font style=&quot;font-size: 14px;&quot; color=&quot;#000000&quot;&gt;Delivery&lt;/font&gt;" style="text;strokeColor=none;align=center;fillColor=none;html=1;verticalAlign=middle;whiteSpace=wrap;rounded=0;" vertex="1" parent="1">
                    <mxGeometry x="361" y="229.4" width="60" height="30" as="geometry"/>
                </mxCell>
                <mxCell id="7" value="&lt;font style=&quot;font-size: 14px;&quot; color=&quot;#000000&quot;&gt;Operations&lt;/font&gt;" style="text;strokeColor=none;align=center;fillColor=none;html=1;verticalAlign=middle;whiteSpace=wrap;rounded=0;" vertex="1" parent="1">
                    <mxGeometry x="488" y="229.4" width="60" height="30" as="geometry"/>
                </mxCell>
                <mxCell id="16" value="&lt;font style=&quot;font-size: 14px;&quot;&gt;MLOps&lt;/font&gt;" style="labelPosition=center;align=center;strokeWidth=1;shape=mxgraph.mockup.markup.curlyBrace;html=1;shadow=0;dashed=0;strokeColor=#999999;direction=west;labelBackgroundColor=#FFFFFF;fontColor=#000000;fillColor=#FFB366;textDirection=rtl;verticalLabelPosition=bottom;verticalAlign=top;" vertex="1" parent="1">
                    <mxGeometry x="325" y="343" width="266" height="23" as="geometry"/>
                </mxCell>
                <mxCell id="18" value="&lt;font style=&quot;font-size: 14px;&quot;&gt;ML governance&lt;/font&gt;" style="labelPosition=center;align=center;strokeWidth=1;shape=mxgraph.mockup.markup.curlyBrace;html=1;shadow=0;dashed=0;strokeColor=#999999;direction=west;labelBackgroundColor=#FFFFFF;fontColor=#000000;fillColor=#FFB366;textDirection=rtl;verticalLabelPosition=bottom;verticalAlign=top;" vertex="1" parent="1">
                    <mxGeometry x="183" y="393" width="415" height="25" as="geometry"/>
                </mxCell>
            </root>
        </mxGraphModel>
    </diagram>
</mxfile>